<svg width="18" height="18" viewBox="0 0 18 18" fill="none" xmlns="http://www.w3.org/2000/svg">
<path fill-rule="evenodd" clip-rule="evenodd" d="M0 9C0 4.02944 4.02944 0 9 0C11.3869 0 13.6761 0.948211 15.364 2.63604C17.0518 4.32387 18 6.61305 18 9C18 13.9706 13.9706 18 9 18C4.02944 18 0 13.9706 0 9ZM11.9173 10.9891C11.9173 10.8698 11.868 10.7558 11.7809 10.6741L10.1159 9.00013L11.7809 7.32613C11.868 7.24447 11.9173 7.13046 11.9173 7.01113C11.9173 6.8918 11.868 6.77779 11.7809 6.69613L11.3039 6.21913C11.2223 6.13212 11.1083 6.08276 10.9889 6.08276C10.8696 6.08276 10.7556 6.13212 10.6739 6.21913L8.99995 7.88413L7.32595 6.21913C7.24429 6.13212 7.13027 6.08276 7.01095 6.08276C6.89162 6.08276 6.77761 6.13212 6.69595 6.21913L6.21895 6.69613C6.13194 6.77779 6.08258 6.8918 6.08258 7.01113C6.08258 7.13046 6.13194 7.24447 6.21895 7.32613L7.88395 9.00013L6.21895 10.6741C6.13194 10.7558 6.08258 10.8698 6.08258 10.9891C6.08258 11.1085 6.13194 11.2225 6.21895 11.3041L6.69595 11.7811C6.77761 11.8681 6.89162 11.9175 7.01095 11.9175C7.13027 11.9175 7.24429 11.8681 7.32595 11.7811L8.99995 10.1161L10.6739 11.7811C10.7556 11.8681 10.8696 11.9175 10.9889 11.9175C11.1083 11.9175 11.2223 11.8681 11.3039 11.7811L11.7809 11.3041C11.868 11.2225 11.9173 11.1085 11.9173 10.9891Z" fill="#D8D8D8"/>
</svg>
