<svg width="21" height="16" viewBox="0 0 21 16" fill="none" xmlns="http://www.w3.org/2000/svg">
<path d="M0.725093 1.97455L19.4682 1.97455C19.8131 1.97455 20.0928 1.55452 20.0926 1.03708C20.0924 0.519564 19.8123 0.0996108 19.4675 0.0996108L0.724365 0.0996094C0.379477 0.0996094 0.0997725 0.519641 0.0999734 1.03708C0.100174 1.55452 0.380257 1.97455 0.725093 1.97455Z" fill="black" stroke="white" stroke-width="0.2"/>
<path d="M19.4675 6.66211L0.724365 6.66211C0.379477 6.66211 0.0997725 7.08214 0.0999734 7.59958C0.100174 8.11701 0.380257 8.53704 0.725093 8.53704L19.4682 8.53704C19.8131 8.53704 20.0928 8.11701 20.0926 7.59958C20.0924 7.08214 19.8124 6.66211 19.4675 6.66211Z" fill="black" stroke="white" stroke-width="0.2"/>
<path d="M19.4676 13.2246L6.9724 13.2246C6.62752 13.2246 6.34781 13.6446 6.348 14.1621C6.34819 14.6796 6.62826 15.0995 6.97309 15.0995L19.4683 15.0996C19.8132 15.0996 20.0929 14.6795 20.0927 14.1621C20.0926 13.6446 19.8125 13.2246 19.4676 13.2246Z" fill="black" stroke="white" stroke-width="0.2"/>
</svg>
