<svg width="20" height="19" viewBox="0 0 20 19" fill="none" xmlns="http://www.w3.org/2000/svg">
<path d="M9.07423 17.5424C9.323 17.7912 9.65742 17.9298 10.0082 17.9298C10.3548 17.9298 10.6974 17.7871 10.9421 17.5424L18.2708 10.2137C19.3842 9.10031 19.9959 7.61989 20 6.04974C20 4.47552 19.3883 2.99509 18.2749 1.88172C17.1615 0.768339 15.6852 0.156594 14.1109 0.156594C12.5653 0.156594 11.1093 0.747948 10.0041 1.82462C8.89478 0.74387 7.43475 0.148438 5.88499 0.148438C4.31485 0.148438 2.8385 0.760183 1.72512 1.86948C0.611746 2.98286 0 4.46328 0 6.03751C0 7.60765 0.615824 9.08808 1.7292 10.2015L9.07423 17.5424ZM2.43475 2.57911C3.35644 1.65741 4.58401 1.14762 5.88907 1.14762C7.19413 1.14762 8.42578 1.65741 9.35155 2.58318L9.65334 2.88498C9.74715 2.97878 9.87357 3.0318 10.0082 3.0318C10.1387 3.0318 10.2692 2.97878 10.363 2.88498L10.6566 2.59134C11.5824 1.66557 12.81 1.15578 14.1191 1.15578C15.4241 1.15578 16.6517 1.66557 17.5734 2.58726C18.4992 3.51304 19.0049 4.74061 19.0049 6.04566C19.0049 7.35072 18.4951 8.57829 17.5693 9.50407L10.2365 16.8369C10.1183 16.9551 9.90212 16.9551 9.77977 16.8369L2.43883 9.49591C1.51305 8.57013 1.00326 7.34257 1.00326 6.03751C1.00326 4.73245 1.51305 3.50488 2.43475 2.57911Z" fill="black" stroke="black" stroke-width="0.3"/>
</svg>
